# xmcd
#
# Track frame offsets: 
#        150
#        28673
#        55347
#        84583
#        145625
#        149137
#        168540
#
# Disc length: 2561 seconds
#
# Revision: 1
# Processed by: cddbd v1.5.2PL0 Copyright (c) Steve Scherf et al.
# Submitted via: ExactAudioCopy v0.95b4
#
DISCID=6309ff07
DTITLE=Popa Chubby - Live at the FIP [CD1)
DYEAR=1900
DGENRE=Blues
TTITLE0=Hey Joe
TTITLE1=The Dock Of The Bay
TTITLE2=Time Is Killing Me
TTITLE3=Sweet Goddess Of Love And Beer
TTITLE4=Musicians Introduction
TTITLE5=Fire
TTITLE6=Daddy Played The Guitar
EXTD=
EXTT0=
EXTT1=
EXTT2=
EXTT3=
EXTT4=
EXTT5=
EXTT6=
PLAYORDER=
